 <svg
          fill="currentColor"
          viewBox="0 0 24 24"
          xmlns="http://www.w3.org/2000/svg"
        >
          <path d="M12 0C5.372 0 0 5.373 0 12c0 5.303 3.438 9.799 8.207 11.387.599.111.793-.261.793-.577 0-.285-.01-1.04-.015-2.04-3.338.724-4.042-1.614-4.042-1.614-.546-1.387-1.333-1.756-1.333-1.756-1.09-.745.083-.73.083-.73 1.205.084 1.839 1.237 1.839 1.237 1.07 1.835 2.808 1.305 3.493.997.108-.775.419-1.305.762-1.605-2.665-.304-5.466-1.333-5.466-5.932 0-1.311.469-2.382 1.237-3.222-.124-.303-.536-1.522.117-3.176 0 0 1.008-.323 3.302 1.231a11.51 11.51 0 0 1 3.004-.404c1.02.005 2.045.138 3.004.404 2.294-1.554 3.299-1.231 3.299-1.231.655 1.654.243 2.873.119 3.176.771.84 1.237 1.911 1.237 3.222 0 4.609-2.803 5.624-5.476 5.921.43.37.815 1.102.815 2.222 0 1.606-.014 2.899-.014 3.293 0 .318.192.694.8.577C20.565 21.796 24 17.3 24 12c0-6.627-5.373-12-12-12z" />
        </svg>