<svg
          
          fill="currentColor"
          viewBox="0 0 24 24"
          xmlns="http://www.w3.org/2000/svg"
        >
          <path d="M20.447 20.452h-3.554v-5.569c0-1.329-.025-3.037-1.85-3.037-1.852 0-2.136 1.447-2.136 2.941v5.665H9.352V9h3.414v1.561h.048c.476-.901 1.636-1.85 3.367-1.85 3.599 0 4.267 2.368 4.267 5.455v6.285zM5.337 7.433c-1.144 0-2.067-.926-2.067-2.067 0-1.142.924-2.068 2.067-2.068 1.142 0 2.068.926 2.068 2.068 0 1.141-.926 2.067-2.068 2.067zm1.778 13.019H3.557V9h3.558v11.452zM22.225 0H1.771C.792 0 0 .773 0 1.725v20.506C0 23.228.792 24 1.771 24h20.451C23.208 24 24 23.228 24 22.231V1.725C24 .773 23.208 0 22.225 0z" />
        </svg>