<svg
          fill="currentColor"
          viewBox="0 0 24 24"
          xmlns="http://www.w3.org/2000/svg"
        >
          <path d="M23.498 6.186a2.993 2.993 0 0 0-2.104-2.111C19.246 3.447 12 3.447 12 3.447s-7.246 0-9.394.628A2.993 2.993 0 0 0 .502 6.186 29.392 29.392 0 0 0 0 12a29.392 29.392 0 0 0 .502 5.814 2.993 2.993 0 0 0 2.104 2.111c2.148.628 9.394.628 9.394.628s7.246 0 9.394-.628a2.993 2.993 0 0 0 2.104-2.111A29.392 29.392 0 0 0 24 12a29.392 29.392 0 0 0-.502-5.814zM9.546 15.568V8.432L16.568 12z" />
        </svg>